<?xml version="1.0" encoding="utf-8"?>
<svg viewBox="42.417 407.99 384.129 86.167" width="384.129" height="86.167" xmlns="http://www.w3.org/2000/svg">
  <g id="g-13" featurekey="textGroupContainer" transform="matrix(1, 0, 0, 1, 361.236888, 423.118604)" fill="#ffffff">
    <rect xmlns="http://www.w3.org/2000/svg" y="0" height="1" width="1" opacity="0" style=""/>
    <rect xmlns="http://www.w3.org/2000/svg" y="0" x="-235" width="3" height="62" style=""/>
  </g>
  <g id="g-14" featurekey="odWo6G-0" transform="matrix(0.780012, 0, 0, 0.780012, 37.67481, 414.957105)" fill="#111111" style="">
    <g transform="matrix(1, 0, 0, 1, 0.571293, 0)">
      <path xmlns="http://www.w3.org/2000/svg" d="M 50 93.166 C 26.198 93.166 6.834 73.802 6.834 50 C 6.834 26.198 26.198 6.834 50 6.834 C 73.802 6.834 93.166 26.198 93.166 50 C 93.166 73.802 73.802 93.166 50 93.166 Z M 50 8.834 C 27.301 8.834 8.834 27.301 8.834 50 C 8.834 72.699 27.301 91.166 50 91.166 C 72.699 91.166 91.166 72.699 91.166 50 C 91.166 27.301 72.699 8.834 50 8.834 Z" style="paint-order: stroke markers; fill-rule: evenodd; fill: rgb(255, 255, 255);"/>
      <path xmlns="http://www.w3.org/2000/svg" d="M 42.054 45.22 L 41.947 44.478 C 60.145 41.855 70.192 31.453 73.667 27.103 L 74.253 27.571 C 70.722 31.99 60.517 42.559 42.054 45.22 Z" style="fill-opacity: 0.68; paint-order: stroke markers; fill-rule: evenodd; fill: rgb(255, 255, 255);"/>
      <circle xmlns="http://www.w3.org/2000/svg" cx="44.793" cy="46.114" r="2.82" style="fill-opacity: 0.68; paint-order: stroke markers; fill-rule: evenodd; fill: rgb(255, 255, 255);"/>
      <path xmlns="http://www.w3.org/2000/svg" d="M 36.344 79.667 C 32.86 75.28 27.332 66.128 29.449 54.115 L 30.187 54.246 C 28.121 65.969 33.525 74.912 36.93 79.2 L 36.344 79.667 Z" style="fill-opacity: 0.68; paint-order: stroke markers; fill-rule: evenodd; fill: rgb(255, 255, 255);"/>
      <path xmlns="http://www.w3.org/2000/svg" d="M 78.553 58.284 L 77.803 58.263 C 78.065 48.888 74.481 39.915 67.71 32.998 C 60.66 25.794 50.819 21.706 40.684 21.765 L 40.679 21.015 C 51 20.975 61.055 25.125 68.246 32.473 C 75.16 39.537 78.82 48.704 78.553 58.284 Z" style="fill-opacity: 0.68; paint-order: stroke markers; fill-rule: evenodd; fill: rgb(255, 255, 255);"/>
      <path xmlns="http://www.w3.org/2000/svg" d="M 55.399 79.251 C 32.777 78.135 17.44 63.323 10.629 49.833 C 5.622 39.915 4.839 30.251 8.586 24.611 C 11.004 20.971 15.161 19.25 20.595 19.628 L 20.543 20.376 C 15.379 20.015 11.47 21.625 9.21 25.026 C 5.612 30.442 6.412 39.817 11.298 49.495 C 18.013 62.797 33.135 77.401 55.436 78.501 L 55.399 79.251 Z" style="fill-opacity: 0.68; paint-order: stroke markers; fill-rule: evenodd; fill: rgb(255, 255, 255);"/>
      <path xmlns="http://www.w3.org/2000/svg" d="M 23.574 83.267 C 13.12 81.553 6.04 74.011 5.536 64.052 C 5.052 54.472 10.949 43.083 25.215 39.234 L 25.41 39.958 C 11.548 43.698 5.816 54.734 6.286 64.014 C 6.672 71.648 11.448 80.519 23.696 82.527 L 23.574 83.267 Z" style="fill-opacity: 0.68; paint-order: stroke markers; fill-rule: evenodd; fill: rgb(255, 255, 255);"/>
      <circle xmlns="http://www.w3.org/2000/svg" cx="25.179" cy="39.64" r="2.82" style="fill-opacity: 0.68; paint-order: stroke markers; fill-rule: evenodd; fill: rgb(255, 255, 255);"/>
      <path xmlns="http://www.w3.org/2000/svg" d="M 71.286 94.365 C 70.961 94.365 70.632 94.35 70.298 94.319 C 63.962 93.73 58.223 87.877 54.944 78.661 L 55.651 78.409 C 58.829 87.343 64.33 93.011 70.367 93.572 C 73.617 93.881 76.494 92.571 77.888 90.175 C 79.331 87.696 78.914 84.489 76.743 81.379 L 77.358 80.949 C 79.703 84.309 80.131 87.809 78.536 90.552 C 77.138 92.954 74.416 94.365 71.286 94.365 Z" style="fill-opacity: 0.68; paint-order: stroke markers; fill-rule: evenodd; fill: rgb(255, 255, 255);"/>
      <path xmlns="http://www.w3.org/2000/svg" d="M 73.706 12.936 C 73.101 12.936 72.487 12.951 71.865 12.982 C 60.053 13.562 49.351 19.328 43.238 28.409 L 44.555 28.657 C 50.481 19.854 60.737 14.27 71.993 13.717 C 78.052 13.413 83.416 14.703 86.017 17.064 C 88.705 19.507 87.93 22.666 83.881 25.73 L 85.026 26.154 C 89.399 22.843 90.198 19.395 87.224 16.693 C 84.619 14.326 79.543 12.936 73.706 12.936 Z" style="fill-opacity: 0.68; paint-order: stroke markers; fill-rule: evenodd; fill: rgb(255, 255, 255);" transform="matrix(0.999784, -0.020769, 0.020769, 0.999784, -0.417661, 1.377655)"/>
    </g>
    <circle xmlns="http://www.w3.org/2000/svg" cx="76.514" cy="28.767" r="0" style="fill-opacity: 0.68; paint-order: stroke markers; fill: rgb(255, 255, 255);"/>
    <circle xmlns="http://www.w3.org/2000/svg" cx="27.345" cy="55.653" r="0" style="fill-opacity: 0.68; paint-order: stroke markers; fill: rgb(255, 255, 255);"/>
    <circle xmlns="http://www.w3.org/2000/svg" cx="34.08" cy="80.649" r="0" style="fill-opacity: 0.68; paint-order: stroke markers; fill: rgb(255, 255, 255);"/>
    <circle xmlns="http://www.w3.org/2000/svg" cx="78.128" cy="58.131" r="0" style="fill-opacity: 0.68; paint-order: stroke markers; fill: rgb(255, 255, 255);"/>
    <circle xmlns="http://www.w3.org/2000/svg" cx="40.819" cy="21.442" r="0" style="fill-opacity: 0.68; paint-order: stroke markers; fill: rgb(255, 255, 255);"/>
    <circle xmlns="http://www.w3.org/2000/svg" cx="55.277" cy="78.637" r="0" style="fill-opacity: 0.68; paint-order: stroke markers; fill: rgb(255, 255, 255);"/>
    <circle xmlns="http://www.w3.org/2000/svg" cx="62.771" cy="18.677" r="0" style="fill-opacity: 0.68; paint-order: stroke markers; fill: rgb(255, 255, 255);"/>
  </g>
  <g id="g-15" featurekey="nameFeature-0" transform="matrix(1.470365, 0, 0, 1.470365, 50.133596, 413.747815)" fill="#6789ba" style="">
    <path d="M 16.171 40.16 L 13.331 22.28 L 12.451 34.04 L 8.731 33.92 L 4.971 23.84 L 5.331 39.92 L 0.571 39.56 L 1.811 17.4 L 6.131 16.16 L 9.411 24.2 L 11.211 16.04 L 16.731 15.48 L 20.371 39 L 16.171 40.16 Z M 29.086 39.92 C 26.326 39.68 21.686 36.52 21.686 36.52 L 23.286 32.08 C 23.286 32.08 27.006 35.4 29.166 35.2 C 31.326 35 32.526 33.16 32.086 30.96 C 31.166 26.28 23.566 26 23.566 21.64 C 23.566 17.28 26.646 14.4 29.086 14.28 C 32.966 14.08 35.006 16.04 35.006 16.04 C 34.806 16.32 33.686 18.68 33.686 18.68 C 33.686 18.68 29.606 17.2 28.926 20.68 C 28.006 25.32 37.166 24.88 37.326 31.12 C 37.526 38.2 31.806 40.16 29.086 39.92 L 29.086 39.92 Z" style="fill: rgb(255, 255, 255);"/>
  </g>
  <path d="M 178.434 476.297 Q 173.451 478.709 165.421 478.709 Q 154.948 478.709 148.949 472.552 Q 142.951 466.395 142.951 456.144 Q 142.951 445.226 149.695 438.434 Q 156.439 431.642 167.199 431.642 Q 173.864 431.642 178.434 433.324 L 178.434 443.194 Q 173.864 440.465 168.024 440.465 Q 161.613 440.465 157.677 444.496 Q 153.742 448.526 153.742 455.414 Q 153.742 462.015 157.455 465.935 Q 161.168 469.854 167.453 469.854 Q 173.451 469.854 178.434 466.935 Z M 204.801 478.709 Q 195.026 478.709 188.869 472.346 Q 182.711 465.982 182.711 455.763 Q 182.711 444.972 188.964 438.307 Q 195.216 431.642 205.531 431.642 Q 215.275 431.642 221.289 438.021 Q 227.304 444.4 227.304 454.842 Q 227.304 465.57 221.067 472.14 Q 214.831 478.709 204.801 478.709 Z M 205.246 440.465 Q 199.85 440.465 196.676 444.511 Q 193.502 448.558 193.502 455.223 Q 193.502 461.983 196.676 465.919 Q 199.85 469.854 204.992 469.854 Q 210.292 469.854 213.402 466.03 Q 216.513 462.206 216.513 455.414 Q 216.513 448.336 213.498 444.4 Q 210.482 440.465 205.246 440.465 Z M 271.952 458.207 Q 271.952 478.709 252.845 478.709 Q 234.31 478.709 234.31 458.683 L 234.31 432.403 L 244.593 432.403 L 244.593 458.81 Q 244.593 469.854 253.226 469.854 Q 261.7 469.854 261.7 459.19 L 261.7 432.403 L 271.952 432.403 Z M 320.031 477.916 L 308.256 477.916 L 301.179 466.205 Q 300.385 464.872 299.655 463.824 Q 298.925 462.777 298.18 462.031 Q 297.434 461.285 296.624 460.888 Q 295.815 460.492 294.863 460.492 L 292.102 460.492 L 292.102 477.916 L 281.85 477.916 L 281.85 432.403 L 298.1 432.403 Q 314.668 432.403 314.668 444.781 Q 314.668 447.162 313.938 449.177 Q 313.208 451.192 311.875 452.811 Q 310.542 454.43 308.653 455.604 Q 306.765 456.778 304.448 457.445 L 304.448 457.572 Q 305.463 457.889 306.416 458.603 Q 307.368 459.317 308.256 460.27 Q 309.145 461.222 309.954 462.317 Q 310.764 463.412 311.43 464.459 Z M 292.102 440.084 L 292.102 452.748 L 296.545 452.748 Q 299.846 452.748 301.845 450.843 Q 303.877 448.907 303.877 446.051 Q 303.877 440.084 296.735 440.084 Z M 322.183 476.17 L 322.183 466.014 Q 324.944 468.331 328.181 469.489 Q 331.419 470.648 334.72 470.648 Q 336.656 470.648 338.1 470.299 Q 339.544 469.95 340.512 469.331 Q 341.48 468.712 341.956 467.871 Q 342.432 467.03 342.432 466.046 Q 342.432 464.713 341.67 463.665 Q 340.909 462.618 339.591 461.729 Q 338.274 460.841 336.465 460.016 Q 334.656 459.19 332.561 458.333 Q 327.229 456.112 324.611 452.906 Q 321.993 449.701 321.993 445.162 Q 321.993 441.607 323.421 439.052 Q 324.849 436.498 327.309 434.847 Q 329.768 433.197 333.006 432.419 Q 336.243 431.642 339.861 431.642 Q 343.416 431.642 346.161 432.07 Q 348.907 432.499 351.223 433.387 L 351.223 442.877 Q 350.081 442.083 348.732 441.48 Q 347.383 440.877 345.955 440.481 Q 344.527 440.084 343.114 439.894 Q 341.702 439.703 340.432 439.703 Q 338.687 439.703 337.259 440.036 Q 335.83 440.37 334.847 440.973 Q 333.863 441.576 333.323 442.417 Q 332.784 443.258 332.784 444.305 Q 332.784 445.448 333.387 446.352 Q 333.99 447.257 335.1 448.066 Q 336.211 448.875 337.798 449.653 Q 339.385 450.431 341.385 451.256 Q 344.114 452.398 346.288 453.684 Q 348.462 454.969 350.017 456.588 Q 351.573 458.207 352.398 460.285 Q 353.223 462.364 353.223 465.125 Q 353.223 468.934 351.779 471.521 Q 350.335 474.107 347.859 475.71 Q 345.384 477.313 342.099 478.011 Q 338.814 478.709 335.164 478.709 Q 331.419 478.709 328.039 478.075 Q 324.659 477.44 322.183 476.17 Z M 388.01 477.916 L 360.716 477.916 L 360.716 432.403 L 386.963 432.403 L 386.963 440.75 L 370.967 440.75 L 370.967 450.875 L 385.852 450.875 L 385.852 459.19 L 370.967 459.19 L 370.967 469.601 L 388.01 469.601 Z M 393.215 476.17 L 393.215 466.014 Q 395.976 468.331 399.214 469.489 Q 402.451 470.648 405.752 470.648 Q 407.688 470.648 409.132 470.299 Q 410.576 469.95 411.544 469.331 Q 412.512 468.712 412.988 467.871 Q 413.464 467.03 413.464 466.046 Q 413.464 464.713 412.702 463.665 Q 411.941 462.618 410.623 461.729 Q 409.306 460.841 407.497 460.016 Q 405.688 459.19 403.593 458.333 Q 398.261 456.112 395.643 452.906 Q 393.025 449.701 393.025 445.162 Q 393.025 441.607 394.453 439.052 Q 395.881 436.498 398.341 434.847 Q 400.8 433.197 404.038 432.419 Q 407.275 431.642 410.893 431.642 Q 414.448 431.642 417.193 432.07 Q 419.939 432.499 422.255 433.387 L 422.255 442.877 Q 421.113 442.083 419.764 441.48 Q 418.415 440.877 416.987 440.481 Q 415.559 440.084 414.146 439.894 Q 412.734 439.703 411.464 439.703 Q 409.719 439.703 408.291 440.036 Q 406.862 440.37 405.879 440.973 Q 404.895 441.576 404.355 442.417 Q 403.816 443.258 403.816 444.305 Q 403.816 445.448 404.419 446.352 Q 405.022 447.257 406.132 448.066 Q 407.243 448.875 408.83 449.653 Q 410.417 450.431 412.417 451.256 Q 415.146 452.398 417.32 453.684 Q 419.494 454.969 421.049 456.588 Q 422.605 458.207 423.43 460.285 Q 424.255 462.364 424.255 465.125 Q 424.255 468.934 422.811 471.521 Q 421.367 474.107 418.891 475.71 Q 416.416 477.313 413.131 478.011 Q 409.846 478.709 406.196 478.709 Q 402.451 478.709 399.071 478.075 Q 395.691 477.44 393.215 476.17 Z" style="fill: rgb(255, 255, 255); white-space: pre;"/>
</svg>