<?xml version="1.0" encoding="utf-8"?>
<svg viewBox="36.612 317.971 384.129 86.167" width="384.129" height="86.167" xmlns="http://www.w3.org/2000/svg">
  <g id="g-1" featurekey="textGroupContainer" transform="matrix(1, 0, 0, 1, 355.431804, 333.09965)" fill="#ffffff">
    <rect xmlns="http://www.w3.org/2000/svg" y="0" height="1" width="1" opacity="0" style="fill: rgb(14, 89, 169);"/>
    <rect xmlns="http://www.w3.org/2000/svg" y="0" x="-235" width="3" height="62" style="fill: rgb(14, 89, 169);"/>
  </g>
  <g id="g-2" featurekey="odWo6G-0" transform="matrix(0.780012, 0, 0, 0.780012, 31.869733, 324.938151)" fill="#111111" style="">
    <g transform="matrix(1, 0, 0, 1, 0.571293, 0)">
      <path xmlns="http://www.w3.org/2000/svg" d="M 50 93.166 C 26.198 93.166 6.834 73.802 6.834 50 C 6.834 26.198 26.198 6.834 50 6.834 C 73.802 6.834 93.166 26.198 93.166 50 C 93.166 73.802 73.802 93.166 50 93.166 Z M 50 8.834 C 27.301 8.834 8.834 27.301 8.834 50 C 8.834 72.699 27.301 91.166 50 91.166 C 72.699 91.166 91.166 72.699 91.166 50 C 91.166 27.301 72.699 8.834 50 8.834 Z" style="paint-order: stroke markers; fill: rgb(14, 89, 169); fill-rule: evenodd;"/>
      <path xmlns="http://www.w3.org/2000/svg" d="M 42.054 45.22 L 41.947 44.478 C 60.145 41.855 70.192 31.453 73.667 27.103 L 74.253 27.571 C 70.722 31.99 60.517 42.559 42.054 45.22 Z" style="fill-opacity: 0.68; paint-order: stroke markers; fill: rgb(14, 89, 169); fill-rule: evenodd;"/>
      <circle xmlns="http://www.w3.org/2000/svg" cx="44.793" cy="46.114" r="2.82" style="fill-opacity: 0.68; paint-order: stroke markers; fill: rgb(14, 89, 169); fill-rule: evenodd;"/>
      <path xmlns="http://www.w3.org/2000/svg" d="M 36.344 79.667 C 32.86 75.28 27.332 66.128 29.449 54.115 L 30.187 54.246 C 28.121 65.969 33.525 74.912 36.93 79.2 L 36.344 79.667 Z" style="fill-opacity: 0.68; paint-order: stroke markers; fill: rgb(14, 89, 169); fill-rule: evenodd;"/>
      <path xmlns="http://www.w3.org/2000/svg" d="M 78.553 58.284 L 77.803 58.263 C 78.065 48.888 74.481 39.915 67.71 32.998 C 60.66 25.794 50.819 21.706 40.684 21.765 L 40.679 21.015 C 51 20.975 61.055 25.125 68.246 32.473 C 75.16 39.537 78.82 48.704 78.553 58.284 Z" style="fill-opacity: 0.68; paint-order: stroke markers; fill: rgb(14, 89, 169); fill-rule: evenodd;"/>
      <path xmlns="http://www.w3.org/2000/svg" d="M 55.399 79.251 C 32.777 78.135 17.44 63.323 10.629 49.833 C 5.622 39.915 4.839 30.251 8.586 24.611 C 11.004 20.971 15.161 19.25 20.595 19.628 L 20.543 20.376 C 15.379 20.015 11.47 21.625 9.21 25.026 C 5.612 30.442 6.412 39.817 11.298 49.495 C 18.013 62.797 33.135 77.401 55.436 78.501 L 55.399 79.251 Z" style="fill-opacity: 0.68; paint-order: stroke markers; fill: rgb(14, 89, 169); fill-rule: evenodd;"/>
      <path xmlns="http://www.w3.org/2000/svg" d="M 23.574 83.267 C 13.12 81.553 6.04 74.011 5.536 64.052 C 5.052 54.472 10.949 43.083 25.215 39.234 L 25.41 39.958 C 11.548 43.698 5.816 54.734 6.286 64.014 C 6.672 71.648 11.448 80.519 23.696 82.527 L 23.574 83.267 Z" style="fill-opacity: 0.68; paint-order: stroke markers; fill: rgb(14, 89, 169); fill-rule: evenodd;"/>
      <circle xmlns="http://www.w3.org/2000/svg" cx="25.179" cy="39.64" r="2.82" style="fill-opacity: 0.68; paint-order: stroke markers; fill: rgb(14, 89, 169); fill-rule: evenodd;"/>
      <path xmlns="http://www.w3.org/2000/svg" d="M 71.286 94.365 C 70.961 94.365 70.632 94.35 70.298 94.319 C 63.962 93.73 58.223 87.877 54.944 78.661 L 55.651 78.409 C 58.829 87.343 64.33 93.011 70.367 93.572 C 73.617 93.881 76.494 92.571 77.888 90.175 C 79.331 87.696 78.914 84.489 76.743 81.379 L 77.358 80.949 C 79.703 84.309 80.131 87.809 78.536 90.552 C 77.138 92.954 74.416 94.365 71.286 94.365 Z" style="fill-opacity: 0.68; paint-order: stroke markers; fill: rgb(14, 89, 169); fill-rule: evenodd;"/>
      <path xmlns="http://www.w3.org/2000/svg" d="M 73.706 12.936 C 73.101 12.936 72.487 12.951 71.865 12.982 C 60.053 13.562 49.351 19.328 43.238 28.409 L 44.555 28.657 C 50.481 19.854 60.737 14.27 71.993 13.717 C 78.052 13.413 83.416 14.703 86.017 17.064 C 88.705 19.507 87.93 22.666 83.881 25.73 L 85.026 26.154 C 89.399 22.843 90.198 19.395 87.224 16.693 C 84.619 14.326 79.543 12.936 73.706 12.936 Z" style="fill-opacity: 0.68; paint-order: stroke markers; fill: rgb(14, 89, 169); fill-rule: evenodd;" transform="matrix(0.999784, -0.020769, 0.020769, 0.999784, -0.417661, 1.377655)"/>
    </g>
    <circle xmlns="http://www.w3.org/2000/svg" cx="76.514" cy="28.767" r="0" style="fill-opacity: 0.68; paint-order: stroke markers; fill: rgb(14, 89, 169);"/>
    <circle xmlns="http://www.w3.org/2000/svg" cx="27.345" cy="55.653" r="0" style="fill-opacity: 0.68; paint-order: stroke markers; fill: rgb(14, 89, 169);"/>
    <circle xmlns="http://www.w3.org/2000/svg" cx="34.08" cy="80.649" r="0" style="fill-opacity: 0.68; paint-order: stroke markers; fill: rgb(14, 89, 169);"/>
    <circle xmlns="http://www.w3.org/2000/svg" cx="78.128" cy="58.131" r="0" style="fill-opacity: 0.68; paint-order: stroke markers; fill: rgb(14, 89, 169);"/>
    <circle xmlns="http://www.w3.org/2000/svg" cx="40.819" cy="21.442" r="0" style="fill-opacity: 0.68; paint-order: stroke markers; fill: rgb(14, 89, 169);"/>
    <circle xmlns="http://www.w3.org/2000/svg" cx="55.277" cy="78.637" r="0" style="fill-opacity: 0.68; paint-order: stroke markers; fill: rgb(14, 89, 169);"/>
    <circle xmlns="http://www.w3.org/2000/svg" cx="62.771" cy="18.677" r="0" style="fill-opacity: 0.68; paint-order: stroke markers; fill: rgb(14, 89, 169);"/>
  </g>
  <g id="g-3" featurekey="nameFeature-0" transform="matrix(1.470365, 0, 0, 1.470365, 44.328519, 323.728861)" fill="#6789ba" style="">
    <path d="M 16.171 40.16 L 13.331 22.28 L 12.451 34.04 L 8.731 33.92 L 4.971 23.84 L 5.331 39.92 L 0.571 39.56 L 1.811 17.4 L 6.131 16.16 L 9.411 24.2 L 11.211 16.04 L 16.731 15.48 L 20.371 39 L 16.171 40.16 Z M 29.086 39.92 C 26.326 39.68 21.686 36.52 21.686 36.52 L 23.286 32.08 C 23.286 32.08 27.006 35.4 29.166 35.2 C 31.326 35 32.526 33.16 32.086 30.96 C 31.166 26.28 23.566 26 23.566 21.64 C 23.566 17.28 26.646 14.4 29.086 14.28 C 32.966 14.08 35.006 16.04 35.006 16.04 C 34.806 16.32 33.686 18.68 33.686 18.68 C 33.686 18.68 29.606 17.2 28.926 20.68 C 28.006 25.32 37.166 24.88 37.326 31.12 C 37.526 38.2 31.806 40.16 29.086 39.92 L 29.086 39.92 Z" style="fill: rgb(14, 89, 169);"/>
  </g>
  <path d="M 172.629 386.278 Q 167.646 388.69 159.616 388.69 Q 149.143 388.69 143.144 382.533 Q 137.146 376.376 137.146 366.125 Q 137.146 355.207 143.89 348.415 Q 150.634 341.623 161.394 341.623 Q 168.059 341.623 172.629 343.305 L 172.629 353.175 Q 168.059 350.446 162.219 350.446 Q 155.808 350.446 151.872 354.477 Q 147.937 358.507 147.937 365.395 Q 147.937 371.996 151.65 375.916 Q 155.363 379.836 161.648 379.836 Q 167.646 379.836 172.629 376.916 Z M 198.996 388.69 Q 189.221 388.69 183.064 382.327 Q 176.906 375.963 176.906 365.744 Q 176.906 354.953 183.159 348.288 Q 189.411 341.623 199.726 341.623 Q 209.47 341.623 215.484 348.002 Q 221.499 354.381 221.499 364.823 Q 221.499 375.551 215.262 382.121 Q 209.026 388.69 198.996 388.69 Z M 199.441 350.446 Q 194.045 350.446 190.871 354.492 Q 187.697 358.539 187.697 365.204 Q 187.697 371.964 190.871 375.9 Q 194.045 379.836 199.187 379.836 Q 204.487 379.836 207.597 376.011 Q 210.708 372.187 210.708 365.395 Q 210.708 358.317 207.693 354.381 Q 204.677 350.446 199.441 350.446 Z M 266.147 368.188 Q 266.147 388.69 247.04 388.69 Q 228.505 388.69 228.505 368.664 L 228.505 342.384 L 238.788 342.384 L 238.788 368.791 Q 238.788 379.836 247.421 379.836 Q 255.895 379.836 255.895 369.171 L 255.895 342.384 L 266.147 342.384 Z M 314.226 387.897 L 302.451 387.897 L 295.374 376.186 Q 294.58 374.853 293.85 373.805 Q 293.12 372.758 292.375 372.012 Q 291.629 371.266 290.819 370.869 Q 290.01 370.473 289.058 370.473 L 286.297 370.473 L 286.297 387.897 L 276.045 387.897 L 276.045 342.384 L 292.295 342.384 Q 308.863 342.384 308.863 354.762 Q 308.863 357.143 308.133 359.158 Q 307.403 361.173 306.07 362.792 Q 304.737 364.411 302.848 365.585 Q 300.96 366.759 298.643 367.426 L 298.643 367.553 Q 299.658 367.87 300.611 368.584 Q 301.563 369.298 302.451 370.251 Q 303.34 371.203 304.149 372.298 Q 304.959 373.393 305.625 374.44 Z M 286.297 350.065 L 286.297 362.729 L 290.74 362.729 Q 294.041 362.729 296.04 360.824 Q 298.072 358.888 298.072 356.032 Q 298.072 350.065 290.93 350.065 Z M 316.378 386.151 L 316.378 375.995 Q 319.139 378.312 322.376 379.471 Q 325.614 380.629 328.915 380.629 Q 330.851 380.629 332.295 380.28 Q 333.739 379.931 334.707 379.312 Q 335.675 378.693 336.151 377.852 Q 336.627 377.011 336.627 376.027 Q 336.627 374.694 335.865 373.647 Q 335.104 372.599 333.786 371.711 Q 332.469 370.822 330.66 369.997 Q 328.851 369.171 326.756 368.315 Q 321.424 366.093 318.806 362.887 Q 316.188 359.682 316.188 355.143 Q 316.188 351.588 317.616 349.034 Q 319.044 346.479 321.504 344.828 Q 323.963 343.178 327.201 342.4 Q 330.438 341.623 334.056 341.623 Q 337.611 341.623 340.356 342.051 Q 343.102 342.48 345.418 343.368 L 345.418 352.858 Q 344.276 352.065 342.927 351.461 Q 341.578 350.858 340.15 350.462 Q 338.722 350.065 337.309 349.875 Q 335.897 349.684 334.627 349.684 Q 332.882 349.684 331.454 350.017 Q 330.025 350.351 329.042 350.954 Q 328.058 351.557 327.518 352.398 Q 326.979 353.239 326.979 354.286 Q 326.979 355.429 327.582 356.333 Q 328.185 357.238 329.295 358.047 Q 330.406 358.857 331.993 359.634 Q 333.58 360.412 335.58 361.237 Q 338.309 362.379 340.483 363.665 Q 342.657 364.95 344.212 366.569 Q 345.768 368.188 346.593 370.266 Q 347.418 372.345 347.418 375.107 Q 347.418 378.915 345.974 381.502 Q 344.53 384.088 342.054 385.691 Q 339.579 387.294 336.294 387.992 Q 333.009 388.69 329.359 388.69 Q 325.614 388.69 322.234 388.056 Q 318.854 387.421 316.378 386.151 Z M 382.205 387.897 L 354.911 387.897 L 354.911 342.384 L 381.158 342.384 L 381.158 350.732 L 365.162 350.732 L 365.162 360.856 L 380.047 360.856 L 380.047 369.171 L 365.162 369.171 L 365.162 379.582 L 382.205 379.582 Z M 387.41 386.151 L 387.41 375.995 Q 390.171 378.312 393.408 379.471 Q 396.646 380.629 399.947 380.629 Q 401.883 380.629 403.327 380.28 Q 404.771 379.931 405.739 379.312 Q 406.707 378.693 407.183 377.852 Q 407.659 377.011 407.659 376.027 Q 407.659 374.694 406.897 373.647 Q 406.135 372.599 404.818 371.711 Q 403.501 370.822 401.692 369.997 Q 399.883 369.171 397.788 368.315 Q 392.456 366.093 389.838 362.887 Q 387.219 359.682 387.219 355.143 Q 387.219 351.588 388.648 349.034 Q 390.076 346.479 392.536 344.828 Q 394.995 343.178 398.233 342.4 Q 401.47 341.623 405.088 341.623 Q 408.643 341.623 411.388 342.051 Q 414.134 342.48 416.45 343.368 L 416.45 352.858 Q 415.308 352.065 413.959 351.461 Q 412.61 350.858 411.182 350.462 Q 409.754 350.065 408.341 349.875 Q 406.929 349.684 405.659 349.684 Q 403.914 349.684 402.486 350.017 Q 401.057 350.351 400.073 350.954 Q 399.09 351.557 398.55 352.398 Q 398.01 353.239 398.01 354.286 Q 398.01 355.429 398.614 356.333 Q 399.217 357.238 400.327 358.047 Q 401.438 358.857 403.025 359.634 Q 404.612 360.412 406.612 361.237 Q 409.341 362.379 411.515 363.665 Q 413.689 364.95 415.244 366.569 Q 416.8 368.188 417.625 370.266 Q 418.45 372.345 418.45 375.107 Q 418.45 378.915 417.006 381.502 Q 415.562 384.088 413.086 385.691 Q 410.611 387.294 407.326 387.992 Q 404.041 388.69 400.391 388.69 Q 396.646 388.69 393.266 388.056 Q 389.885 387.421 387.41 386.151 Z" style="fill: rgb(14, 89, 169); white-space: pre;"/>
</svg>