<svg xmlns="http://www.w3.org/2000/svg" xmlns:bx="https://boxy-svg.com" viewBox="0 0 385 100" width="385" height="100">
  <style>
    .aint-flame {
      transform-box: fill-box;
      transform-origin: 50% 100%;
      animation: aint-flame-flicker 2.6s ease-in-out infinite;
    }
    @keyframes aint-flame-flicker {
      0%, 100% { fill: #0e59a9; opacity: 0.9; transform: scale(1, 1); }
      22% { fill: #2f82de; opacity: 1; transform: scale(0.97, 1.05); }
      48% { fill: #5ea4ef; opacity: 0.82; transform: scale(1.03, 0.95); }
      74% { fill: #1770d4; opacity: 1; transform: scale(0.98, 1.04); }
    }
    @media (prefers-reduced-motion: reduce) {
      .aint-flame { animation: none; }
    }
  </style>
  <g style="" transform="matrix(1.242923, 0, 0, 1.242923, -49.927038, -34.892869)">
    <g id="g-7" featurekey="textGroupContainer" transform="matrix(1, 0, 0, 1, 346.794597, 33.411237)" fill="#ffffff">
      <rect xmlns="http://www.w3.org/2000/svg" y="0" height="1" width="1" opacity="0" style="fill: rgb(14, 89, 169);" class="svg-elem-original-1 svg-elem-light-1"></rect>
    </g>
    <g transform="matrix(1, 0, 0, 1, -26.402871, -134.465122)" id="object-0">
      <circle cx="100.749" cy="199.132" r="31.371" style="stroke: rgb(14, 89, 169); fill: rgb(14, 89, 169); stroke-width: 1;" class="svg-elem-original-3 svg-elem-light-2"></circle>
      <g fill="#fff" style="" transform="matrix(1.091433, 0, 0, 1.091433, 46.178132, 144.561757)">
        <polygon points="44 24.289 30 70 42 70 48 54.001 52 54.001 58 70 70 70 56 24.289" class="svg-elem-original-4 svg-elem-light-3"></polygon>
        <path d="M 49.675 27.784 C 37.02 43.272 51.63 37.334 49.311 53.49 C 59.299 40.166 55.68 36.488 49.675 27.784 Z" fill="#0e59a9" class="svg-elem-original-5 svg-elem-light-4 aint-flame"></path>
      </g>
    </g>
    <text style="fill: rgb(14, 89, 169); font-family: &quot;Segoe UI&quot;; font-size: 75px; font-weight: 900; white-space: pre;" x="108" y="89.59" id="object-1">NTLab</text>
  </g>
  <defs>
    <bx:export>
      <bx:file format="svg" href="#g-7"></bx:file>
      <bx:file format="svg" href="#object-0" path="Untitled 2.svg"></bx:file>
      <bx:file format="svg" href="#object-1" path="Untitled 3.svg"></bx:file>
    </bx:export>
  </defs>
</svg>
