<?xml version="1.0" encoding="utf-8"?>
<svg viewBox="33.347 114.813 423.188 248.486" width="423.188" height="248.486" xmlns="http://www.w3.org/2000/svg">
  <g>
    <circle cx="153.654" cy="235.12" r="120.307" fill="#f2f2f2" style=""/>
    <ellipse cx="242.854" cy="352.992" rx="192.642" ry="10.307" fill="#3f3d56" style=""/>
    <ellipse cx="242.479" cy="349.806" rx="172.404" ry="8.245" opacity="0.2" style=""/>
    <rect x="82.444" y="171.969" width="314.824" height="18.74" fill="#3f3d56" style=""/>
    <path d="M 82.444 342.997 C 82.444 347.481 86.08 351.118 90.566 351.118 L 389.147 351.118 C 393.631 351.118 397.268 347.481 397.268 342.997 L 397.268 181.338 L 82.444 181.338 L 82.444 342.997 Z" fill="#3f3d56" style=""/>
    <path d="M 389.147 158.851 L 90.566 158.851 C 86.08 158.851 82.444 162.487 82.444 166.972 L 82.444 181.338 L 397.268 181.338 L 397.268 166.972 C 397.268 162.487 393.631 158.851 389.147 158.851 Z" fill="#3f3d56" style=""/>
    <path d="M 389.147 158.851 L 90.566 158.851 C 86.08 158.851 82.444 162.487 82.444 166.972 L 82.444 181.338 L 397.268 181.338 L 397.268 166.972 C 397.268 162.487 393.631 158.851 389.147 158.851 Z" opacity="0.2" style=""/>
    <circle cx="101.184" cy="170.095" r="4.872" fill="#3f3d56" style=""/>
    <circle cx="114.676" cy="170.095" r="4.872" fill="#3f3d56" style=""/>
    <circle cx="128.168" cy="170.095" r="4.872" fill="#3f3d56" style=""/>
    <rect x="96.311" y="194.831" width="126.305" height="144.669" rx="5.335" fill="#606060" style=""/>
    <rect x="259.345" y="216.943" width="106.44" height="8.245" rx="5.476" style="fill: rgb(14, 89, 169);"/>
    <rect x="234.609" y="246.926" width="155.913" height="5.622" rx="5.476" style="fill: rgb(14, 89, 169);"/>
    <rect x="234.609" y="263.417" width="155.913" height="5.622" rx="5.476" style="fill: rgb(14, 89, 169);"/>
    <rect x="234.609" y="279.908" width="155.913" height="5.622" rx="5.476" style="fill: rgb(14, 89, 169);"/>
    <rect x="234.609" y="296.398" width="155.913" height="5.622" rx="5.476" style="fill: rgb(14, 89, 169);"/>
    <rect x="357.54" y="321.884" width="32.982" height="9.745" rx="7.028" style="fill: rgb(14, 89, 169);"/>
    <g transform="matrix(1.112562, 0, 0, 1.112562, -32.944164, -18.402315)" style="">
      <g transform="matrix(1.128767, 0, 0, 1.128767, -150.678146, 165.67334)" style="">
        <g id="SvgjsG2781" featurekey="odWo6G-0" transform="matrix(0.780012, 0, 0, 0.780012, 247.264297, 41.335388)" fill="#111111" style="">
          <g transform="matrix(1, 0, 0, 1, 0.571293, 0)">
            <path xmlns="http://www.w3.org/2000/svg" d="M 50 93.166 C 26.198 93.166 6.834 73.802 6.834 50 C 6.834 26.198 26.198 6.834 50 6.834 C 73.802 6.834 93.166 26.198 93.166 50 C 93.166 73.802 73.802 93.166 50 93.166 Z M 50 8.834 C 27.301 8.834 8.834 27.301 8.834 50 C 8.834 72.699 27.301 91.166 50 91.166 C 72.699 91.166 91.166 72.699 91.166 50 C 91.166 27.301 72.699 8.834 50 8.834 Z" style="paint-order: stroke markers; fill-rule: evenodd; fill: rgb(255, 255, 255);"/>
            <path xmlns="http://www.w3.org/2000/svg" d="M 42.054 45.22 L 41.947 44.478 C 60.145 41.855 70.192 31.453 73.667 27.103 L 74.253 27.571 C 70.722 31.99 60.517 42.559 42.054 45.22 Z" style="fill-opacity: 0.68; paint-order: stroke markers; fill-rule: evenodd; fill: rgb(255, 255, 255);"/>
            <circle xmlns="http://www.w3.org/2000/svg" cx="44.793" cy="46.114" r="2.82" style="fill-opacity: 0.68; paint-order: stroke markers; fill-rule: evenodd; fill: rgb(255, 255, 255);"/>
            <path xmlns="http://www.w3.org/2000/svg" d="M 36.344 79.667 C 32.86 75.28 27.332 66.128 29.449 54.115 L 30.187 54.246 C 28.121 65.969 33.525 74.912 36.93 79.2 L 36.344 79.667 Z" style="fill-opacity: 0.68; paint-order: stroke markers; fill-rule: evenodd; fill: rgb(255, 255, 255);"/>
            <path xmlns="http://www.w3.org/2000/svg" d="M 78.553 58.284 L 77.803 58.263 C 78.065 48.888 74.481 39.915 67.71 32.998 C 60.66 25.794 50.819 21.706 40.684 21.765 L 40.679 21.015 C 51 20.975 61.055 25.125 68.246 32.473 C 75.16 39.537 78.82 48.704 78.553 58.284 Z" style="fill-opacity: 0.68; paint-order: stroke markers; fill-rule: evenodd; fill: rgb(255, 255, 255);"/>
            <path xmlns="http://www.w3.org/2000/svg" d="M 55.399 79.251 C 32.777 78.135 17.44 63.323 10.629 49.833 C 5.622 39.915 4.839 30.251 8.586 24.611 C 11.004 20.971 15.161 19.25 20.595 19.628 L 20.543 20.376 C 15.379 20.015 11.47 21.625 9.21 25.026 C 5.612 30.442 6.412 39.817 11.298 49.495 C 18.013 62.797 33.135 77.401 55.436 78.501 L 55.399 79.251 Z" style="fill-opacity: 0.68; paint-order: stroke markers; fill-rule: evenodd; fill: rgb(255, 255, 255);"/>
            <path xmlns="http://www.w3.org/2000/svg" d="M 23.574 83.267 C 13.12 81.553 6.04 74.011 5.536 64.052 C 5.052 54.472 10.949 43.083 25.215 39.234 L 25.41 39.958 C 11.548 43.698 5.816 54.734 6.286 64.014 C 6.672 71.648 11.448 80.519 23.696 82.527 L 23.574 83.267 Z" style="fill-opacity: 0.68; paint-order: stroke markers; fill-rule: evenodd; fill: rgb(255, 255, 255);"/>
            <circle xmlns="http://www.w3.org/2000/svg" cx="25.179" cy="39.64" r="2.82" style="fill-opacity: 0.68; paint-order: stroke markers; fill-rule: evenodd; fill: rgb(255, 255, 255);"/>
            <path xmlns="http://www.w3.org/2000/svg" d="M 71.286 94.365 C 70.961 94.365 70.632 94.35 70.298 94.319 C 63.962 93.73 58.223 87.877 54.944 78.661 L 55.651 78.409 C 58.829 87.343 64.33 93.011 70.367 93.572 C 73.617 93.881 76.494 92.571 77.888 90.175 C 79.331 87.696 78.914 84.489 76.743 81.379 L 77.358 80.949 C 79.703 84.309 80.131 87.809 78.536 90.552 C 77.138 92.954 74.416 94.365 71.286 94.365 Z" style="fill-opacity: 0.68; paint-order: stroke markers; fill-rule: evenodd; fill: rgb(255, 255, 255);"/>
            <path xmlns="http://www.w3.org/2000/svg" d="M 73.706 12.936 C 73.101 12.936 72.487 12.951 71.865 12.982 C 60.053 13.562 49.351 19.328 43.238 28.409 L 44.555 28.657 C 50.481 19.854 60.737 14.27 71.993 13.717 C 78.052 13.413 83.416 14.703 86.017 17.064 C 88.705 19.507 87.93 22.666 83.881 25.73 L 85.026 26.154 C 89.399 22.843 90.198 19.395 87.224 16.693 C 84.619 14.326 79.543 12.936 73.706 12.936 Z" style="fill-opacity: 0.68; paint-order: stroke markers; fill-rule: evenodd; fill: rgb(255, 255, 255);" transform="matrix(0.999784, -0.020769, 0.020769, 0.999784, -0.417661, 1.377655)"/>
          </g>
          <circle xmlns="http://www.w3.org/2000/svg" cx="76.514" cy="28.767" r="0" style="fill-opacity: 0.68; paint-order: stroke markers; fill: rgb(255, 255, 255);"/>
          <circle xmlns="http://www.w3.org/2000/svg" cx="27.345" cy="55.653" r="0" style="fill-opacity: 0.68; paint-order: stroke markers; fill: rgb(255, 255, 255);"/>
          <circle xmlns="http://www.w3.org/2000/svg" cx="34.08" cy="80.649" r="0" style="fill-opacity: 0.68; paint-order: stroke markers; fill: rgb(255, 255, 255);"/>
          <circle xmlns="http://www.w3.org/2000/svg" cx="78.128" cy="58.131" r="0" style="fill-opacity: 0.68; paint-order: stroke markers; fill: rgb(255, 255, 255);"/>
          <circle xmlns="http://www.w3.org/2000/svg" cx="40.819" cy="21.442" r="0" style="fill-opacity: 0.68; paint-order: stroke markers; fill: rgb(255, 255, 255);"/>
          <circle xmlns="http://www.w3.org/2000/svg" cx="55.277" cy="78.637" r="0" style="fill-opacity: 0.68; paint-order: stroke markers; fill: rgb(255, 255, 255);"/>
          <circle xmlns="http://www.w3.org/2000/svg" cx="62.771" cy="18.677" r="0" style="fill-opacity: 0.68; paint-order: stroke markers; fill: rgb(255, 255, 255);"/>
        </g>
        <g id="SvgjsG2927" featurekey="nameFeature-0" transform="matrix(1.470365, 0, 0, 1.470365, 259.723083, 40.126091)" fill="#6789ba" style="">
          <path d="M 16.171 40.16 L 13.331 22.28 L 12.451 34.04 L 8.731 33.92 L 4.971 23.84 L 5.331 39.92 L 0.571 39.56 L 1.811 17.4 L 6.131 16.16 L 9.411 24.2 L 11.211 16.04 L 16.731 15.48 L 20.371 39 L 16.171 40.16 Z M 29.086 39.92 C 26.326 39.68 21.686 36.52 21.686 36.52 L 23.286 32.08 C 23.286 32.08 27.006 35.4 29.166 35.2 C 31.326 35 32.526 33.16 32.086 30.96 C 31.166 26.28 23.566 26 23.566 21.64 C 23.566 17.28 26.646 14.4 29.086 14.28 C 32.966 14.08 35.006 16.04 35.006 16.04 C 34.806 16.32 33.686 18.68 33.686 18.68 C 33.686 18.68 29.606 17.2 28.926 20.68 C 28.006 25.32 37.166 24.88 37.326 31.12 C 37.526 38.2 31.806 40.16 29.086 39.92 L 29.086 39.92 Z" style="fill: rgb(255, 255, 255);"/>
        </g>
      </g>
    </g>
    <path d="M 428.04 304.5 C 429.037 302.76 429.552 300.784 429.532 298.778 C 429.532 293.608 426.33 289.416 422.38 289.416 C 418.43 289.416 415.228 293.608 415.228 298.778 C 415.208 300.784 415.724 302.76 416.721 304.5 C 414.73 308.055 414.73 312.388 416.721 315.943 C 414.73 319.498 414.73 323.831 416.721 327.386 C 414.73 330.942 414.73 335.275 416.721 338.83 C 415.724 340.57 415.208 342.545 415.228 344.551 C 415.228 349.722 418.43 353.913 422.38 353.913 C 426.33 353.913 429.532 349.722 429.532 344.551 C 429.552 342.545 429.037 340.57 428.04 338.83 C 430.029 335.275 430.029 330.942 428.04 327.386 C 430.029 323.831 430.029 319.498 428.04 315.943 C 430.029 312.388 430.029 308.055 428.04 304.5 Z" fill="#3f3d56" style=""/>
    <ellipse cx="422.38" cy="287.336" rx="7.152" ry="9.363" fill="#3f3d56" style=""/>
    <ellipse cx="422.38" cy="275.893" rx="7.152" ry="9.363" fill="#3f3d56" style=""/>
    <path d="M 449.153 197.583 C 450.13 196.34 451.021 195.029 451.817 193.662 L 433.024 190.576 L 453.349 190.727 C 457.289 182.154 457.526 172.336 454.003 163.583 L 426.736 177.728 L 451.883 159.243 C 438.673 136.416 405.706 136.449 392.542 159.303 C 385.557 171.429 386.649 186.584 395.301 197.583 C 393.777 199.519 392.468 201.614 391.394 203.831 L 415.787 216.504 L 389.776 207.774 C 386.067 218.743 388.144 230.843 395.301 239.946 C 378.996 260.673 391.245 291.278 417.349 295.034 C 443.451 298.789 463.831 272.879 454.032 248.395 C 452.817 245.361 451.175 242.515 449.153 239.946 C 458.929 227.516 458.929 210.012 449.153 197.583 Z" fill-rule="evenodd" style="fill: rgb(14, 89, 169);"/>
    <path d="M 387.969 218.764 C 387.957 226.449 390.54 233.912 395.301 239.946 C 378.996 260.673 391.245 291.278 417.349 295.034 C 443.451 298.789 463.831 272.879 454.032 248.395 C 452.817 245.361 451.175 242.515 449.153 239.946 C 453.745 234.116 387.969 214.919 387.969 218.764 Z" opacity="0.1" style=""/>
  </g>
</svg>