<?xml version="1.0" encoding="utf-8"?>
<svg viewBox="45.973 139.111 385.692 243.881" width="385.692" height="243.881" xmlns="http://www.w3.org/2000/svg">
  <g transform="matrix(1, 0, 0, 1, 0, -11.878302)">
    <path id="Path_83" data-name="Path 83" d="M 386.931 312.088 C 385.063 328.093 381.182 340.944 375.853 351.192 C 368.763 364.848 356.636 370.349 345.803 376.106 C 342.672 377.767 339.418 379.182 336.068 380.339 C 316.355 387.181 294.291 385.366 276.959 381.754 C 264.803 379.218 252.464 377.658 240.06 377.088 C 236.522 376.929 232.98 376.85 229.435 376.851 C 223.969 376.858 125.543 378.726 101.579 330.21 C 95.662 318.242 91.607 303.622 90.15 285.802 C 86.027 235.421 108.687 202.332 137.915 180.704 C 193.206 139.792 268.994 141.507 323.469 183.498 C 359.756 211.467 393.731 253.798 386.931 312.088 Z" fill="#3f3d56"/>
    <path id="Path_84" data-name="Path 84" d="M 375.853 351.192 C 368.763 364.848 359.118 373.894 348.284 379.651 C 345.154 381.312 341.899 382.727 338.55 383.884 C 318.836 390.726 296.772 388.911 279.441 385.299 C 267.285 382.763 254.946 381.203 242.541 380.633 C 239.003 380.474 235.462 380.395 231.917 380.396 C 226.451 380.403 220.985 380.606 215.521 381.006 C 180.011 383.615 125.543 378.726 101.579 330.21 L 161.539 214.076 L 183.854 271.37 L 190.976 289.658 L 210.605 262.724 L 220.74 248.817 L 266.895 301.733 L 279.941 272.923 L 370.259 346.63 L 375.297 350.738 L 375.853 351.192 Z" fill="#f2f2f2"/>
    <path id="Path_85" data-name="Path 85" d="M 153.031 251.299 L 162.248 231.092 L 175.01 260.516 L 164.02 239.246 L 153.031 251.299 Z" opacity="0.1"/>
    <path id="Path_86" data-name="Path 86" d="M 242.541 380.633 C 239.003 380.474 235.462 380.395 231.917 380.396 L 190.976 289.659 L 242.541 380.633 Z" opacity="0.1"/>
    <path id="Path_87" data-name="Path 87" d="M 210.605 262.724 L 220.74 254.844 L 266.824 308.018 L 220.031 262.643 L 210.605 262.724 Z" opacity="0.1"/>
    <path id="Path_88" data-name="Path 88" d="M 348.284 379.651 C 345.154 381.312 341.899 382.727 338.55 383.884 L 266.895 301.733 L 348.284 379.651 Z" opacity="0.1"/>
    <circle id="Ellipse_11" data-name="Ellipse 11" cx="216.84" cy="187.135" r="1.063" fill="#f2f2f2"/>
    <circle id="Ellipse_12" data-name="Ellipse 12" cx="187.417" cy="223.648" r="1.063" fill="#f2f2f2"/>
    <circle id="Ellipse_13" data-name="Ellipse 13" cx="259.38" cy="230.029" r="0.709" fill="#f2f2f2"/>
    <circle id="Ellipse_14" data-name="Ellipse 14" cx="110.491" cy="245.981" r="0.709" fill="#f2f2f2"/>
    <circle id="Ellipse_15" data-name="Ellipse 15" cx="263.634" cy="186.071" r="0.709" fill="#f2f2f2"/>
    <circle id="Ellipse_16" data-name="Ellipse 16" cx="307.591" cy="220.103" r="0.709" fill="#f2f2f2"/>
    <circle id="Ellipse_17" data-name="Ellipse 17" cx="350.84" cy="273.986" r="0.709" fill="#f2f2f2"/>
    <path id="Path_89" data-name="Path 89" d="M 154.449 193.962 L 153.47 193.962 L 153.47 192.984 L 152.946 192.984 L 152.946 193.962 L 151.967 193.962 L 151.967 194.486 L 152.946 194.486 L 152.946 195.464 L 153.47 195.464 L 153.47 194.486 L 154.449 194.486 L 154.449 193.962 Z" fill="#f2f2f2"/>
    <path id="Path_90" data-name="Path 90" d="M 346.586 301.375 L 345.608 301.375 L 345.608 300.397 L 345.083 300.397 L 345.083 301.375 L 344.105 301.375 L 344.105 301.899 L 345.083 301.899 L 345.083 302.877 L 345.608 302.877 L 345.608 301.899 L 346.586 301.899 L 346.586 301.375 Z" fill="#f2f2f2"/>
    <path id="Path_91" data-name="Path 91" d="M 431.665 368.637 C 431.665 374.511 345.325 394.87 238.819 394.87 C 132.313 394.87 45.973 374.511 45.973 368.637 C 45.973 362.764 132.313 373.6 238.819 373.6 C 345.325 373.6 431.665 362.764 431.665 368.637 Z" fill="#3f3d56"/>
    <path id="Path_92" data-name="Path 92" d="M 431.665 368.637 C 431.665 374.511 345.325 394.87 238.819 394.87 C 132.313 394.87 45.973 374.511 45.973 368.637 C 45.973 362.764 132.313 373.6 238.819 373.6 C 345.325 373.6 431.665 362.764 431.665 368.637 Z" opacity="0.1"/>
    <ellipse id="Ellipse_18" data-name="Ellipse 18" cx="238.819" cy="368.637" rx="192.846" ry="10.635" fill="#3f3d56"/>
    <path id="Path_93" data-name="Path 93" d="M 247.327 353.748 C 247.327 365.495 242.089 362.256 235.629 362.256 C 229.168 362.256 223.93 365.495 223.93 353.748 C 223.93 342.001 235.629 319.717 235.629 319.717 C 235.629 319.717 247.327 342.001 247.327 353.748 Z" fill="#ff6584"/>
    <path id="Path_94" data-name="Path 94" d="M 240.946 358.243 C 240.946 363.582 238.565 362.11 235.629 362.11 C 232.692 362.11 230.311 363.582 230.311 358.243 C 230.311 352.904 235.629 342.774 235.629 342.774 C 235.629 342.774 240.946 352.904 240.946 358.243 Z" opacity="0.1"/>
    <rect id="Rectangle_97" data-name="Rectangle 97" width="32.614" height="6.381" rx="9" fill="#2f2e41" x="219.322" y="365.447"/>
    <rect id="Rectangle_98" data-name="Rectangle 98" width="32.614" height="6.381" rx="9" fill="#2f2e41" x="219.322" y="359.066"/>
    <path id="Path_95" data-name="Path 95" d="M 94.539 324.88 C 94.539 344.499 106.846 360.375 122.057 360.375" fill="#3f3d56"/>
    <path id="Path_96" data-name="Path 96" d="M 122.057 360.375 C 122.057 340.535 135.792 324.481 152.766 324.481" fill="#6c63ff"/>
    <path id="Path_97" data-name="Path 97" d="M 104.509 326.659 C 104.509 345.295 112.357 360.375 122.057 360.375" fill="#6c63ff"/>
    <path id="Path_98" data-name="Path 98" d="M 122.057 360.375 C 122.057 335.024 137.932 314.511 157.551 314.511" fill="#3f3d56"/>
    <path id="Path_99" data-name="Path 99" d="M 116.269 360.625 C 116.269 360.625 120.172 360.505 121.348 359.668 C 122.524 358.831 127.351 357.83 127.643 359.173 C 127.934 360.516 133.507 365.853 129.101 365.889 C 124.695 365.925 118.864 365.203 117.69 364.488 C 116.516 363.773 116.269 360.625 116.269 360.625 Z" fill="#a8a8a8"/>
    <path id="Path_100" data-name="Path 100" d="M 129.179 365.421 C 124.773 365.457 118.941 364.735 117.767 364.02 C 116.873 363.475 116.517 361.521 116.398 360.62 L 116.268 360.625 C 116.268 360.625 116.516 363.772 117.689 364.489 C 118.862 365.205 124.694 365.926 129.1 365.89 C 130.372 365.88 130.811 365.428 130.787 364.756 C 130.611 365.161 130.125 365.413 129.179 365.421 Z" opacity="0.2"/>
    <path id="Path_101" data-name="Path 101" d="M 301.717 337.831 C 301.717 351.313 310.174 362.221 320.626 362.221" fill="#3f3d56"/>
    <path id="Path_102" data-name="Path 102" d="M 320.626 362.221 C 320.626 348.589 330.064 337.557 341.727 337.557" fill="#6c63ff"/>
    <path id="Path_103" data-name="Path 103" d="M 308.568 339.053 C 308.568 351.859 313.961 362.221 320.626 362.221" fill="#6c63ff"/>
    <path id="Path_104" data-name="Path 104" d="M 320.626 362.221 C 320.626 344.802 331.535 330.706 345.015 330.706" fill="#3f3d56"/>
    <path id="Path_105" data-name="Path 105" d="M 316.648 362.393 C 316.648 362.393 319.33 362.311 320.138 361.735 C 320.946 361.16 324.263 360.472 324.463 361.396 C 324.663 362.319 328.493 365.986 325.465 366.01 C 322.438 366.035 318.431 365.539 317.624 365.048 C 316.818 364.556 316.648 362.393 316.648 362.393 Z" fill="#a8a8a8"/>
    <path id="Path_106" data-name="Path 106" d="M 325.52 365.689 C 322.492 365.713 318.485 365.217 317.679 364.726 C 317.064 364.352 316.82 363.009 316.738 362.39 L 316.648 362.393 C 316.648 362.393 316.818 364.556 317.625 365.048 C 318.432 365.539 322.439 366.035 325.466 366.01 C 326.34 366.003 326.642 365.691 326.625 365.23 C 326.504 365.51 326.17 365.684 325.52 365.689 Z" opacity="0.2"/>
    <path id="Path_107" data-name="Path 107" d="M 362.827 370.316 C 362.827 370.316 366.854 369.704 367.967 368.689 C 369.08 367.674 373.954 366.034 374.425 367.389 C 374.895 368.744 381.335 373.574 376.776 374.162 C 372.217 374.751 366.087 374.733 364.782 374.139 C 363.477 373.546 362.827 370.316 362.827 370.316 Z" fill="#a8a8a8"/>
    <path id="Path_108" data-name="Path 108" d="M 376.799 373.668 C 372.24 374.256 366.11 374.239 364.805 373.645 C 363.812 373.193 363.197 371.214 362.961 370.295 L 362.827 370.317 C 362.827 370.317 363.477 373.546 364.782 374.139 C 366.088 374.733 372.218 374.751 376.777 374.162 C 378.093 373.993 378.491 373.469 378.382 372.778 C 378.249 373.219 377.779 373.542 376.799 373.668 Z" opacity="0.2"/>
    <path id="Path_109" data-name="Path 109" d="M 263.726 370.026 C 263.726 370.026 267.125 369.509 268.064 368.653 C 269.003 367.796 273.117 366.412 273.514 367.556 C 273.911 368.699 279.346 372.776 275.499 373.272 C 271.652 373.768 266.478 373.753 265.377 373.252 C 264.275 372.752 263.726 370.026 263.726 370.026 Z" fill="#a8a8a8"/>
    <path id="Path_110" data-name="Path 110" d="M 275.518 372.854 C 271.671 373.35 266.497 373.335 265.395 372.834 C 264.556 372.453 264.039 370.782 263.839 370.007 L 263.726 370.025 C 263.726 370.025 264.274 372.75 265.376 373.251 C 266.478 373.752 271.65 373.767 275.498 373.27 C 276.609 373.128 276.945 372.685 276.853 372.1 C 276.742 372.475 276.345 372.747 275.518 372.854 Z" opacity="0.2"/>
    <path id="Path_111" data-name="Path 111" d="M 89.359 368.328 C 89.359 368.328 92.005 367.925 92.736 367.259 C 93.468 366.592 96.671 365.515 96.979 366.405 C 97.287 367.295 101.52 370.469 98.524 370.855 C 95.529 371.241 91.501 371.23 90.644 370.84 C 89.786 370.45 89.359 368.328 89.359 368.328 Z" fill="#a8a8a8"/>
    <path id="Path_112" data-name="Path 112" d="M 98.539 370.53 C 95.544 370.917 91.516 370.905 90.659 370.515 C 90.006 370.218 89.603 368.918 89.447 368.314 L 89.359 368.328 C 89.359 368.328 89.785 370.449 90.644 370.84 C 91.503 371.23 95.529 371.241 98.524 370.855 C 99.389 370.743 99.651 370.399 99.579 369.945 C 99.492 370.235 99.183 370.447 98.539 370.53 Z" opacity="0.2"/>
    <path id="Path_113" data-name="Path 113" d="M 181.993 364.155 C 181.993 374.868 167.06 371.554 148.777 371.554 C 130.493 371.554 115.782 374.868 115.782 364.155 C 115.782 353.442 130.713 351.112 148.997 351.112 C 167.28 351.112 181.993 353.442 181.993 364.155 Z" opacity="0.1"/>
    <path id="Path_114" data-name="Path 114" d="M 181.993 361.519 C 181.993 372.231 167.06 368.918 148.777 368.918 C 130.493 368.918 115.782 372.231 115.782 361.519 C 115.782 350.806 130.712 348.473 148.995 348.473 C 167.279 348.473 181.993 350.804 181.993 361.519 Z" fill="#3f3d56"/>
    <path id="Path_47" data-name="Path 47" d="M 159.708 320.991 C 159.173 320.991 158.74 320.557 158.74 320.022 C 158.665 317.786 156.198 316.468 154.298 317.651 C 153.475 318.163 152.961 319.053 152.929 320.022 C 152.929 320.768 152.122 321.234 151.476 320.861 C 151.177 320.688 150.992 320.368 150.992 320.022 C 150.992 316.295 155.027 313.965 158.255 315.829 C 159.754 316.694 160.676 318.292 160.676 320.022 C 160.676 320.557 160.243 320.991 159.708 320.991" fill-rule="evenodd"/>
  </g>
  <g transform="matrix(0.869705, 0, 0, 0.869705, -57.737276, 243.6473)" style="">
    <g id="SvgjsG2781" featurekey="odWo6G-0" transform="matrix(0.780012, 0, 0, 0.780012, 247.264297, 41.335388)" fill="#111111" style="">
      <g transform="matrix(1, 0, 0, 1, 0.571293, 0)">
        <path xmlns="http://www.w3.org/2000/svg" d="M 50 93.166 C 26.198 93.166 6.834 73.802 6.834 50 C 6.834 26.198 26.198 6.834 50 6.834 C 73.802 6.834 93.166 26.198 93.166 50 C 93.166 73.802 73.802 93.166 50 93.166 Z M 50 8.834 C 27.301 8.834 8.834 27.301 8.834 50 C 8.834 72.699 27.301 91.166 50 91.166 C 72.699 91.166 91.166 72.699 91.166 50 C 91.166 27.301 72.699 8.834 50 8.834 Z" style="paint-order: stroke markers; fill: rgb(14, 89, 169); fill-rule: evenodd;"/>
        <path xmlns="http://www.w3.org/2000/svg" d="M 42.054 45.22 L 41.947 44.478 C 60.145 41.855 70.192 31.453 73.667 27.103 L 74.253 27.571 C 70.722 31.99 60.517 42.559 42.054 45.22 Z" style="fill-opacity: 0.68; paint-order: stroke markers; fill: rgb(14, 89, 169); fill-rule: evenodd;"/>
        <circle xmlns="http://www.w3.org/2000/svg" cx="44.793" cy="46.114" r="2.82" style="fill-opacity: 0.68; paint-order: stroke markers; fill: rgb(14, 89, 169); fill-rule: evenodd;"/>
        <path xmlns="http://www.w3.org/2000/svg" d="M 36.344 79.667 C 32.86 75.28 27.332 66.128 29.449 54.115 L 30.187 54.246 C 28.121 65.969 33.525 74.912 36.93 79.2 L 36.344 79.667 Z" style="fill-opacity: 0.68; paint-order: stroke markers; fill: rgb(14, 89, 169); fill-rule: evenodd;"/>
        <path xmlns="http://www.w3.org/2000/svg" d="M 78.553 58.284 L 77.803 58.263 C 78.065 48.888 74.481 39.915 67.71 32.998 C 60.66 25.794 50.819 21.706 40.684 21.765 L 40.679 21.015 C 51 20.975 61.055 25.125 68.246 32.473 C 75.16 39.537 78.82 48.704 78.553 58.284 Z" style="fill-opacity: 0.68; paint-order: stroke markers; fill: rgb(14, 89, 169); fill-rule: evenodd;"/>
        <path xmlns="http://www.w3.org/2000/svg" d="M 55.399 79.251 C 32.777 78.135 17.44 63.323 10.629 49.833 C 5.622 39.915 4.839 30.251 8.586 24.611 C 11.004 20.971 15.161 19.25 20.595 19.628 L 20.543 20.376 C 15.379 20.015 11.47 21.625 9.21 25.026 C 5.612 30.442 6.412 39.817 11.298 49.495 C 18.013 62.797 33.135 77.401 55.436 78.501 L 55.399 79.251 Z" style="fill-opacity: 0.68; paint-order: stroke markers; fill: rgb(14, 89, 169); fill-rule: evenodd;"/>
        <path xmlns="http://www.w3.org/2000/svg" d="M 23.574 83.267 C 13.12 81.553 6.04 74.011 5.536 64.052 C 5.052 54.472 10.949 43.083 25.215 39.234 L 25.41 39.958 C 11.548 43.698 5.816 54.734 6.286 64.014 C 6.672 71.648 11.448 80.519 23.696 82.527 L 23.574 83.267 Z" style="fill-opacity: 0.68; paint-order: stroke markers; fill: rgb(14, 89, 169); fill-rule: evenodd;"/>
        <circle xmlns="http://www.w3.org/2000/svg" cx="25.179" cy="39.64" r="2.82" style="fill-opacity: 0.68; paint-order: stroke markers; fill: rgb(14, 89, 169); fill-rule: evenodd;"/>
        <path xmlns="http://www.w3.org/2000/svg" d="M 71.286 94.365 C 70.961 94.365 70.632 94.35 70.298 94.319 C 63.962 93.73 58.223 87.877 54.944 78.661 L 55.651 78.409 C 58.829 87.343 64.33 93.011 70.367 93.572 C 73.617 93.881 76.494 92.571 77.888 90.175 C 79.331 87.696 78.914 84.489 76.743 81.379 L 77.358 80.949 C 79.703 84.309 80.131 87.809 78.536 90.552 C 77.138 92.954 74.416 94.365 71.286 94.365 Z" style="fill-opacity: 0.68; paint-order: stroke markers; fill: rgb(14, 89, 169); fill-rule: evenodd;"/>
        <path xmlns="http://www.w3.org/2000/svg" d="M 73.706 12.936 C 73.101 12.936 72.487 12.951 71.865 12.982 C 60.053 13.562 49.351 19.328 43.238 28.409 L 44.555 28.657 C 50.481 19.854 60.737 14.27 71.993 13.717 C 78.052 13.413 83.416 14.703 86.017 17.064 C 88.705 19.507 87.93 22.666 83.881 25.73 L 85.026 26.154 C 89.399 22.843 90.198 19.395 87.224 16.693 C 84.619 14.326 79.543 12.936 73.706 12.936 Z" style="fill-opacity: 0.68; paint-order: stroke markers; fill: rgb(14, 89, 169); fill-rule: evenodd;" transform="matrix(0.999784, -0.020769, 0.020769, 0.999784, -0.417661, 1.377655)"/>
      </g>
      <circle xmlns="http://www.w3.org/2000/svg" cx="76.514" cy="28.767" r="0" style="fill-opacity: 0.68; paint-order: stroke markers; fill: rgb(14, 89, 169);"/>
      <circle xmlns="http://www.w3.org/2000/svg" cx="27.345" cy="55.653" r="0" style="fill-opacity: 0.68; paint-order: stroke markers; fill: rgb(14, 89, 169);"/>
      <circle xmlns="http://www.w3.org/2000/svg" cx="34.08" cy="80.649" r="0" style="fill-opacity: 0.68; paint-order: stroke markers; fill: rgb(14, 89, 169);"/>
      <circle xmlns="http://www.w3.org/2000/svg" cx="78.128" cy="58.131" r="0" style="fill-opacity: 0.68; paint-order: stroke markers; fill: rgb(14, 89, 169);"/>
      <circle xmlns="http://www.w3.org/2000/svg" cx="40.819" cy="21.442" r="0" style="fill-opacity: 0.68; paint-order: stroke markers; fill: rgb(14, 89, 169);"/>
      <circle xmlns="http://www.w3.org/2000/svg" cx="55.277" cy="78.637" r="0" style="fill-opacity: 0.68; paint-order: stroke markers; fill: rgb(14, 89, 169);"/>
      <circle xmlns="http://www.w3.org/2000/svg" cx="62.771" cy="18.677" r="0" style="fill-opacity: 0.68; paint-order: stroke markers; fill: rgb(14, 89, 169);"/>
    </g>
    <g id="SvgjsG2927" featurekey="nameFeature-0" transform="matrix(1.470365, 0, 0, 1.470365, 259.723083, 40.126091)" fill="#6789ba" style="">
      <path d="M 16.171 40.16 L 13.331 22.28 L 12.451 34.04 L 8.731 33.92 L 4.971 23.84 L 5.331 39.92 L 0.571 39.56 L 1.811 17.4 L 6.131 16.16 L 9.411 24.2 L 11.211 16.04 L 16.731 15.48 L 20.371 39 L 16.171 40.16 Z M 29.086 39.92 C 26.326 39.68 21.686 36.52 21.686 36.52 L 23.286 32.08 C 23.286 32.08 27.006 35.4 29.166 35.2 C 31.326 35 32.526 33.16 32.086 30.96 C 31.166 26.28 23.566 26 23.566 21.64 C 23.566 17.28 26.646 14.4 29.086 14.28 C 32.966 14.08 35.006 16.04 35.006 16.04 C 34.806 16.32 33.686 18.68 33.686 18.68 C 33.686 18.68 29.606 17.2 28.926 20.68 C 28.006 25.32 37.166 24.88 37.326 31.12 C 37.526 38.2 31.806 40.16 29.086 39.92 L 29.086 39.92 Z" style="fill: rgb(14, 89, 169);"/>
    </g>
  </g>
</svg>